# xmcd
#
# Track frame offsets: 
#        150
#        17960
#        49130
#        80767
#        106407
#        132370
#        145425
#        174137
#
# Disc length: 3136 seconds
#
# Revision: 0
# Processed by: cddbd v1.5.2PL0 Copyright (c) Steve Scherf et al.
# Submitted via: ExactAudioCopyFreeDBPlugin 1.0
#
DISCID=6c0c3e08
DTITLE=Various Artist - No Categories 4
DYEAR=2001
DGENRE=House
TTITLE0=Greyboy - Master the Art
TTITLE1=Jack Costanzo - Quimbara (Funky Lowlives Remix)
TTITLE2=Opaque - The Whole Thing
TTITLE3=Nobody - Sioux's Reign Pt. II
TTITLE4=James Combs - Strange Intervention (Mr. Lee's Put Another Anal
TTITLE4=og on the Fire mix)
TTITLE5=Dark Leaf - Eclectic Storm
TTITLE6=Quorum - Renegades Theme
TTITLE7=Joe McPhee - Shakey Jake
EXTD=
EXTT0=
EXTT1=
EXTT2=
EXTT3=
EXTT4=
EXTT5=
EXTT6=
EXTT7=
PLAYORDER=
